<?xml version="1.0" encoding="UTF-8" standalone="no"?>
<!-- Created with Inkscape (http://www.inkscape.org/) -->

<svg width="166.55128mm" height="31.483622mm" viewBox="0 0 166.55128 31.483622" version="1.1" id="svg1" xml:space="preserve" xmlns="http://www.w3.org/2000/svg" xmlns:svg="http://www.w3.org/2000/svg"><defs id="defs1" /><g id="layer1" transform="translate(-16.367431,-69.119496)"><g id="g6"><path style="font-weight:bold;font-size:18.0237px;font-family:'Tamil MN';-inkscape-font-specification:'Tamil MN, Bold';text-align:end;text-anchor:end;fill:#868848;stroke:#020100;stroke-width:1.3213;stroke-linecap:round;stroke-dasharray:7.92782, 1.3213;stroke-dashoffset:0.792782;stroke-opacity:0.0647482" d="m 56.048157,90.496112 q -1.073677,0 -1.883335,-0.246418 -0.800858,-0.255219 -1.364099,-0.69525 -0.563241,-0.440032 -0.897665,-1.047276 -0.334424,-0.616044 -0.457633,-1.346497 h 2.032947 q 0.105608,0.448832 0.308022,0.83606 0.202415,0.387228 0.510437,0.677649 0.316823,0.28162 0.739253,0.448833 0.431232,0.158411 0.994472,0.158411 0.369627,0 0.730453,-0.07921 0.369627,-0.0792 0.660048,-0.255218 0.290421,-0.184814 0.466433,-0.466434 0.176013,-0.290421 0.176013,-0.712851 0,-0.528038 -0.27282,-0.941668 -0.272819,-0.41363 -0.721652,-0.748054 -0.448832,-0.343225 -1.020874,-0.633646 -0.572041,-0.290421 -1.170484,-0.580842 -0.598443,-0.299221 -1.170484,-0.624845 -0.572042,-0.325623 -1.020874,-0.721652 -0.448833,-0.404829 -0.721652,-0.906465 -0.27282,-0.510437 -0.27282,-1.161684 0,-0.712852 0.308022,-1.311295 0.316823,-0.607244 0.906466,-1.047276 0.589642,-0.448832 1.443304,-0.69525 0.853661,-0.255218 1.94494,-0.255218 0.897665,0 1.628118,0.246418 0.730452,0.246417 1.284892,0.686449 0.563241,0.431231 0.941668,1.020874 0.378428,0.580842 0.580842,1.24969 h -1.839332 q -0.158412,-0.42243 -0.369627,-0.809658 -0.211215,-0.387228 -0.519238,-0.677649 -0.308022,-0.290421 -0.748054,-0.457633 -0.440031,-0.176013 -1.047275,-0.176013 -0.572041,0 -0.96807,0.149611 -0.387228,0.149611 -0.624845,0.387228 -0.237617,0.228816 -0.343225,0.519237 -0.105607,0.281621 -0.105607,0.55444 0,0.475235 0.28162,0.862462 0.28162,0.387228 0.739253,0.721653 0.466434,0.334424 1.056076,0.642446 0.589643,0.299222 1.196887,0.607244 0.616044,0.308022 1.205687,0.651247 0.589642,0.334424 1.047275,0.739253 0.466434,0.404829 0.748054,0.897665 0.281621,0.492835 0.281621,1.10888 0,0.730453 -0.299222,1.355298 -0.299221,0.624845 -0.888864,1.091278 -0.589643,0.457633 -1.469706,0.721653 -0.871263,0.264019 -2.015346,0.264019 z m 8.897442,-9.187863 2.640191,5.491596 2.675393,-5.491596 h 1.865735 l -4.43552,9.214264 h -1.24089 l -4.365115,-9.214264 z m 18.182112,0.624845 v 0.941668 h -1.645719 q 0.211216,0.334424 0.352026,0.721652 0.14081,0.387228 0.14081,0.83606 0,0.748054 -0.343225,1.337697 -0.334424,0.580841 -0.950468,0.985671 -0.607244,0.404829 -1.460906,0.616044 -0.853661,0.211215 -1.883336,0.211215 -0.299221,0 -0.616044,-0.0352 -0.308022,-0.044 -0.563241,-0.08801 -0.184813,0.13201 -0.290421,0.378428 -0.105607,0.237617 -0.105607,0.466433 0,0.07041 0.0352,0.13201 0.044,0.0528 0.184814,0.105608 0.14081,0.0528 0.404829,0.09681 0.272819,0.044 0.739253,0.08801 0.466434,0.044 1.152883,0.08801 0.69525,0.0352 1.672121,0.0704 0.897665,0.0352 1.504909,0.202415 0.607243,0.167212 0.97687,0.440032 0.378427,0.264019 0.536839,0.624845 0.158411,0.360826 0.158411,0.783256 0,0.756855 -0.404829,1.390501 -0.396029,0.642446 -1.152883,1.10888 -0.756855,0.466433 -1.839333,0.721652 -1.082478,0.264019 -2.455377,0.264019 -1.232089,0 -2.156156,-0.158412 -0.915266,-0.158411 -1.53131,-0.431231 -0.616045,-0.264019 -0.924067,-0.633645 -0.308022,-0.360826 -0.308022,-0.774456 0,-0.299222 0.176013,-0.607244 0.176012,-0.308022 0.457633,-0.616045 0.290421,-0.299221 0.642446,-0.598443 0.360826,-0.290421 0.730453,-0.56324 -0.528038,-0.176013 -0.844861,-0.440032 -0.308023,-0.264019 -0.308023,-0.598443 0,-0.237618 0.140811,-0.501637 0.14961,-0.264019 0.387228,-0.519237 0.246417,-0.264019 0.572041,-0.492836 0.334424,-0.228816 0.704051,-0.396028 -0.440032,-0.202415 -0.800858,-0.440032 -0.352026,-0.246418 -0.598443,-0.55444 -0.246418,-0.308022 -0.378428,-0.69525 -0.132009,-0.387228 -0.132009,-0.871263 0,-0.765655 0.334424,-1.3905 0.343225,-0.633646 0.941668,-1.073678 0.598443,-0.448832 1.399301,-0.686449 0.809658,-0.246418 1.751326,-0.246418 0.448833,0 0.880064,0.0704 0.431231,0.0616 0.800858,0.176013 0.378427,0.114408 0.677649,0.255218 0.299221,0.14081 0.475234,0.299222 z m -3.511453,8.580619 q -0.607244,0 -1.223288,-0.0176 -0.607244,-0.0176 -1.152884,-0.0528 -0.545639,-0.0264 -0.994471,-0.07041 -0.448833,-0.0352 -0.721653,-0.0704 -0.14961,0.114408 -0.264019,0.272819 -0.105607,0.167212 -0.184813,0.343225 -0.07041,0.176013 -0.114408,0.360826 -0.0352,0.184813 -0.0352,0.352026 0,0.255218 0.184814,0.510436 0.193614,0.255219 0.572041,0.457633 0.387228,0.211216 0.959269,0.343225 0.580842,0.13201 1.346497,0.13201 0.82726,0 1.478507,-0.149611 0.660048,-0.149611 1.10888,-0.378427 0.457633,-0.220016 0.69525,-0.492836 0.246418,-0.264019 0.246418,-0.501636 0,-0.501636 -0.510437,-0.774456 -0.510437,-0.264019 -1.3905,-0.264019 z M 77.653716,86.87025 q 0.299222,0 0.580842,-0.167212 0.28162,-0.167212 0.501636,-0.448833 0.220016,-0.290421 0.352026,-0.651247 0.132009,-0.369626 0.132009,-0.765655 0,-0.580842 -0.149611,-1.082478 -0.14961,-0.510437 -0.413629,-0.888864 -0.255219,-0.387228 -0.598444,-0.607244 -0.343224,-0.220016 -0.730452,-0.220016 -0.369627,0 -0.633646,0.176013 -0.264019,0.176013 -0.440032,0.475234 -0.167212,0.290421 -0.246418,0.68645 -0.07921,0.396028 -0.07921,0.83606 0,0.536839 0.123209,1.020874 0.123208,0.475234 0.352025,0.844861 0.228817,0.360826 0.545639,0.580842 0.316823,0.211215 0.704051,0.211215 z m 8.360605,-8.483812 3.942685,8.246195 3.661064,-8.246195 h 1.874535 L 90.124218,90.496112 H 88.76012 L 82.986903,78.386438 Z m 11.027193,3.74027 1.918539,-1.003273 h 0.818459 v 9.196664 h -2.736998 z m -0.114408,-3.960286 q 0,-0.27282 0.114408,-0.519238 0.114409,-0.246417 0.316823,-0.42243 0.202415,-0.176013 0.466434,-0.28162 0.264019,-0.105608 0.572041,-0.105608 0.308022,0 0.572041,0.105608 0.27282,0.105607 0.466434,0.28162 0.202415,0.176013 0.316823,0.42243 0.114408,0.246418 0.114408,0.519238 0,0.272819 -0.114408,0.519237 -0.114408,0.237617 -0.316823,0.41363 -0.193614,0.176013 -0.466434,0.28162 -0.264019,0.105608 -0.572041,0.105608 -0.308022,0 -0.572041,-0.105608 -0.264019,-0.105607 -0.466434,-0.28162 -0.202414,-0.176013 -0.316823,-0.41363 -0.114408,-0.246418 -0.114408,-0.519237 z m 6.389264,9.636695 q 0.23761,0.739254 0.67765,1.152883 0.44883,0.40483 1.11768,0.40483 0.28162,0 0.51043,-0.07041 0.23762,-0.07041 0.40483,-0.193614 0.17602,-0.13201 0.26402,-0.299222 0.0968,-0.167212 0.0968,-0.360826 0,-0.316823 -0.12321,-0.563241 -0.11441,-0.255218 -0.32562,-0.457633 -0.21122,-0.202414 -0.50164,-0.369626 -0.29042,-0.176013 -0.62484,-0.325624 -0.53684,-0.237617 -1.06488,-0.510437 -0.52804,-0.28162 -0.95047,-0.633645 -0.42243,-0.360826 -0.68645,-0.81846 -0.25522,-0.457633 -0.25522,-1.056076 0,-0.572041 0.23762,-1.038475 0.23762,-0.475234 0.66885,-0.809658 0.43123,-0.334424 1.02967,-0.519238 0.59844,-0.184813 1.3201,-0.184813 0.66004,0 1.17048,0.123209 0.51044,0.123209 0.89767,0.352025 0.38722,0.228817 0.68645,0.563241 0.29922,0.325624 0.53683,0.739253 l -1.58411,0.54564 q -0.12321,-0.431231 -0.29922,-0.668849 -0.17601,-0.237617 -0.36963,-0.352025 -0.19361,-0.123209 -0.37843,-0.149611 -0.18481,-0.0264 -0.32562,-0.0264 -0.25522,0 -0.48403,0.06161 -0.22882,0.0528 -0.40483,0.158411 -0.17602,0.105608 -0.28162,0.264019 -0.10561,0.149611 -0.10561,0.352026 0,0.255218 0.13201,0.484035 0.13201,0.228816 0.36962,0.431231 0.23762,0.193614 0.55444,0.369626 0.32563,0.176013 0.70406,0.334425 0.57204,0.237617 1.10888,0.528038 0.54564,0.290421 0.96807,0.660047 0.42243,0.360826 0.67764,0.809659 0.25522,0.440032 0.25522,0.985671 0,0.589642 -0.19361,1.100079 -0.19361,0.510437 -0.63365,0.888864 -0.43123,0.378428 -1.12648,0.598444 -0.68645,0.220015 -1.67212,0.220015 -0.84486,0 -1.4345,-0.193613 -0.58084,-0.193614 -0.98567,-0.492836 -0.40483,-0.308022 -0.66885,-0.68645 -0.26402,-0.378427 -0.46644,-0.748054 z m 10.41995,-6.494868 v 6.354058 q 0,0.264019 0.10561,0.501636 0.10561,0.228817 0.28162,0.404829 0.18481,0.167213 0.42243,0.26402 0.23762,0.09681 0.51044,0.09681 0.14961,0 0.33442,-0.07921 0.19361,-0.08801 0.38723,-0.237617 0.20241,-0.149611 0.39603,-0.352026 0.19361,-0.202414 0.34322,-0.440031 v -6.51247 h 2.7282 v 9.01185 h -2.7282 v -0.83606 q -0.54564,0.457633 -1.15288,0.730452 -0.59844,0.27282 -1.17929,0.27282 -0.66885,0 -1.24969,-0.220016 -0.58084,-0.228816 -1.01207,-0.607244 -0.42243,-0.387228 -0.66885,-0.897665 -0.24642,-0.519237 -0.24642,-1.100079 v -6.354058 z m 12.3825,4.365115 q -0.39603,0.167212 -0.80086,0.404829 -0.40483,0.237617 -0.73045,0.536838 -0.31683,0.290421 -0.52804,0.651247 -0.20242,0.352026 -0.20242,0.756855 0,0.448833 0.22882,0.704051 0.23762,0.255218 0.63365,0.255218 0.33442,0 0.66004,-0.193614 0.32563,-0.202414 0.73926,-0.519237 z m -4.99876,-2.07695 q 0.14081,-0.563241 0.49283,-1.020874 0.35203,-0.466434 0.87127,-0.783257 0.52803,-0.325623 1.19688,-0.501636 0.67765,-0.176012 1.46091,-0.176012 0.96807,0 1.67212,0.176012 0.70405,0.176013 1.15288,0.501636 0.45763,0.316823 0.66885,0.774456 0.22001,0.448833 0.22001,1.012073 v 5.157173 q 0,0.55444 0.34323,0.941668 0.34322,0.387227 0.96807,0.642446 h -3.23863 q -0.14081,0 -0.27282,-0.07921 -0.13201,-0.07921 -0.23762,-0.202414 -0.10561,-0.13201 -0.18481,-0.281621 -0.0792,-0.149611 -0.11441,-0.290421 -0.24642,0.228817 -0.46644,0.422431 -0.22001,0.184813 -0.48403,0.316823 -0.26402,0.132009 -0.58964,0.202414 -0.32563,0.07921 -0.78326,0.07921 -0.62485,0 -1.12648,-0.176013 -0.49284,-0.176012 -0.84486,-0.484035 -0.34323,-0.316823 -0.52804,-0.739253 -0.18481,-0.431231 -0.18481,-0.932867 0,-0.774456 0.43123,-1.328896 0.43123,-0.55444 1.13528,-0.96807 0.71285,-0.41363 1.61052,-0.721652 0.89766,-0.308022 1.83053,-0.589643 v -0.880063 q 0,-0.431231 -0.088,-0.730453 -0.088,-0.308022 -0.24642,-0.492836 -0.15841,-0.193614 -0.38722,-0.272819 -0.22002,-0.08801 -0.49284,-0.08801 -0.32562,0 -0.58084,0.123209 -0.25522,0.123209 -0.44003,0.334424 -0.18482,0.211216 -0.29923,0.484035 -0.1144,0.27282 -0.16721,0.572042 z m 13.16574,6.723685 h -2.71939 v -12.60251 l 1.90093,-1.003272 h 0.81846 z m 2.7986,-11.933661 h 5.12197 q 1.02968,0 1.88334,0.220016 0.86246,0.220015 1.47851,0.624845 0.61604,0.396028 0.95927,0.959269 0.34322,0.563241 0.34322,1.24969 0,0.422431 -0.0968,0.783257 -0.088,0.360826 -0.29922,0.677648 -0.21121,0.316823 -0.56324,0.607244 -0.34322,0.290421 -0.85366,0.589643 0.52804,0.167212 0.96807,0.448832 0.44003,0.27282 0.75685,0.651247 0.32563,0.369627 0.50164,0.82726 0.18481,0.448832 0.18481,0.959269 0,0.704051 -0.32562,1.311295 -0.31682,0.607244 -0.91527,1.056076 -0.58964,0.448832 -1.4257,0.712851 -0.82726,0.255219 -1.83933,0.255219 h -5.87883 z m 2.93062,5.174773 h 1.92733 q 0.46644,0 0.82726,-0.14081 0.36963,-0.149611 0.61605,-0.404829 0.25522,-0.264019 0.38723,-0.624845 0.13201,-0.360826 0.13201,-0.783257 0,-0.466434 -0.16722,-0.853661 -0.16721,-0.387228 -0.51043,-0.660048 -0.34323,-0.28162 -0.87127,-0.431231 -0.52803,-0.158412 -1.24969,-0.158412 h -1.09127 z m 0,5.5356 h 1.61931 q 0.71285,0 1.23209,-0.149611 0.51924,-0.158412 0.85366,-0.422431 0.34323,-0.272819 0.50164,-0.642446 0.16721,-0.378427 0.16721,-0.818459 0,-0.501636 -0.14961,-0.924067 -0.14961,-0.431231 -0.49284,-0.748054 -0.33442,-0.316823 -0.88886,-0.492835 -0.54564,-0.176013 -1.3377,-0.176013 h -1.5049 z m 9.88311,-10.710373 h 5.12197 q 1.02968,0 1.88334,0.220016 0.86246,0.220015 1.4785,0.624845 0.61605,0.396028 0.95927,0.959269 0.34323,0.563241 0.34323,1.24969 0,0.422431 -0.0968,0.783257 -0.088,0.360826 -0.29922,0.677648 -0.21122,0.316823 -0.56324,0.607244 -0.34323,0.290421 -0.85366,0.589643 0.52804,0.167212 0.96807,0.448832 0.44003,0.27282 0.75685,0.651247 0.32563,0.369627 0.50164,0.82726 0.18481,0.448832 0.18481,0.959269 0,0.704051 -0.32562,1.311295 -0.31682,0.607244 -0.91527,1.056076 -0.58964,0.448832 -1.4257,0.712851 -0.82726,0.255219 -1.83933,0.255219 h -5.87883 z m 2.93061,5.174773 h 1.92734 q 0.46644,0 0.82726,-0.14081 0.36963,-0.149611 0.61605,-0.404829 0.25522,-0.264019 0.38722,-0.624845 0.13201,-0.360826 0.13201,-0.783257 0,-0.466434 -0.16721,-0.853661 -0.16721,-0.387228 -0.51043,-0.660048 -0.34323,-0.28162 -0.87127,-0.431231 -0.52804,-0.158412 -1.24969,-0.158412 h -1.09128 z m 0,5.5356 h 1.61932 q 0.71285,0 1.23209,-0.149611 0.51924,-0.158412 0.85366,-0.422431 0.34323,-0.272819 0.50164,-0.642446 0.16721,-0.378427 0.16721,-0.818459 0,-0.501636 -0.14961,-0.924067 -0.14961,-0.431231 -0.49284,-0.748054 -0.33442,-0.316823 -0.88886,-0.492835 -0.54564,-0.176013 -1.3377,-0.176013 h -1.50491 z m 14.09862,1.3905 q -1.07368,0 -1.98895,-0.352025 -0.90646,-0.352026 -1.57531,-0.96807 -0.66005,-0.616045 -1.03848,-1.443304 -0.36962,-0.836061 -0.36962,-1.804131 0,-1.038475 0.36962,-1.909738 0.37843,-0.880063 1.03848,-1.513709 0.66005,-0.633645 1.56651,-0.985671 0.91527,-0.360826 1.98895,-0.360826 1.07367,0 1.98894,0.352025 0.91527,0.343225 1.57531,0.950469 0.66885,0.607244 1.04728,1.434504 0.37843,0.818459 0.37843,1.768927 0,0.994472 -0.37843,1.874536 -0.36963,0.880063 -1.03848,1.540111 -0.66004,0.651247 -1.57531,1.038475 -0.91527,0.378427 -1.98894,0.378427 z m 0.31682,-1.100079 q 0.36963,0 0.68645,-0.237618 0.31682,-0.246417 0.54564,-0.651247 0.23762,-0.413629 0.36082,-0.950468 0.13201,-0.536839 0.13201,-1.117681 0,-0.862462 -0.13201,-1.619317 -0.1232,-0.765655 -0.41362,-1.337696 -0.29043,-0.572042 -0.75686,-0.906466 -0.45763,-0.334424 -1.12648,-0.334424 -0.32562,0 -0.62485,0.237617 -0.29922,0.237618 -0.52803,0.642447 -0.22882,0.396028 -0.36963,0.924066 -0.13201,0.519238 -0.13201,1.10008 0,0.871263 0.15841,1.645719 0.16721,0.774455 0.46643,1.355297 0.30803,0.572042 0.73926,0.915266 0.44003,0.334425 0.99447,0.334425 z m 5.5532,-8.078983 h 3.05382 l 6.39806,9.01185 h -3.06262 z m 1.92734,9.01185 h -1.94494 l 7.53334,-9.01185 h 1.94494 z" id="text2" aria-label="SvgVisualBBox" /><g id="g3" transform="translate(-84.228929,-17.928246)"><path d="m 114.81115,87.137558 -13.71335,7.059083 c -0.66675,0.391584 -0.47625,1.34673 -0.47625,1.34673 l 14.59706,7.487709 14.5706,-7.371293 c 0.0132,-0.04498 0.0291,-0.320146 -0.0397,-0.844021 -0.037,-0.275166 -0.85989,-0.777875 -1.59543,-1.19327 -7.54857,-4.265084 -12.51215,-6.461125 -12.51215,-6.461125 -0.3175,-0.124355 -0.58208,-0.166688 -0.83079,-0.02381" style="fill:#dea66c;stroke-width:0.264583" id="path42" /><path d="m 100.84115,111.29931 c 0.80433,0.53181 2.27277,1.23031 3.75708,2.03464 3.45017,1.86796 7.8105,4.13809 9.98009,5.02973 0.64823,0.26723 0.99218,0.13494 0.99218,0.13494 0,0 -0.30427,-14.89604 -0.29368,-15.72948 0.005,-0.34925 -0.42069,-0.8255 -0.72496,-1.02129 -0.47096,-0.30163 -1.49225,-0.77258 -1.49225,-0.77258 0,0 -3.57717,-1.778004 -7.14904,-3.651254 -1.69863,-0.891646 -3.13267,-1.804458 -4.67519,-2.555875 -0.28046,-0.137583 -0.61648,0.03175 -0.61383,0.346605 v 15.822084 c 0,0.1561 0.0926,0.28046 0.2196,0.36248" style="fill:#bd8955;stroke-width:0.264583" id="path43" /><path d="m 129.37382,111.39191 -13.69484,7.06173 c -0.2196,0.11377 -0.48154,-0.045 -0.48154,-0.29369 l 0.0238,-15.12887 c 0,-0.14552 -0.10848,-0.52388 -0.14816,-0.65617 -0.037,-0.13229 0.0926,-0.39952 0.21431,-0.46037 l 13.69483,-7.053794 c 0.35984,-0.185209 0.79111,0.07673 0.79111,0.481541 v 15.396103 c 0,0.27517 -0.15346,0.52652 -0.39952,0.65352" style="fill:#a06841;stroke-width:0.264583" id="path44" /><path d="m 122.22213,99.6841 c 0.79639,-0.410105 7.05114,-3.754438 7.05114,-4.122209 0,-0.301625 -6.01927,2.886604 -6.01927,2.886604 0,0 -7.50623,3.839105 -7.62793,4.164545 -0.11642,0.32279 5.89227,-2.56646 6.59606,-2.92894" style="fill:#784d30;stroke-width:0.264583" id="path45" /><g style="opacity:0.73" id="g47" transform="matrix(0.26458333,0,0,0.26458333,98.264108,29.969038)" /><g style="opacity:0.73" id="g49" transform="matrix(0.26458333,0,0,0.26458333,98.264108,29.969038)" /><path d="m 124.56634,97.056787 c -0.13229,-0.0979 -14.37217,-7.537979 -14.37217,-7.537979 l -4.41325,2.275417 14.58119,7.506229 c 1.25941,-0.648229 3.25966,-1.680104 4.26508,-2.196042 -0.0159,-0.01587 -0.037,-0.03175 -0.0609,-0.04762" style="fill:#fce8b2;stroke-width:0.264583" id="path50" /><path d="m 124.62719,97.101766 c -2.20662,0.997479 -4.36562,2.145771 -4.36562,2.145771 0.0556,0.02381 0.19314,0.195792 0.19314,0.195792 -0.008,0.306916 -0.0132,0.611191 -0.0212,0.918101 -0.037,1.57427 -0.0582,3.15119 -0.11113,4.72546 0.17727,-0.10583 0.39158,0.127 0.55298,0 0.24871,-0.19579 0.77787,-1.05833 0.85725,-1.08479 0.10583,-0.0344 0.2196,-0.008 0.32808,-0.0132 0.47625,-0.0265 1.54252,-0.99748 1.77007,-1.04246 0.2196,-0.0423 0.94456,0.0979 0.94456,0.0979 0,0 -0.0556,-4.80219 -0.0688,-5.609169 -0.005,-0.230187 -0.0794,-0.333375 -0.0794,-0.333375" style="fill:#ecb354;stroke-width:0.264583" id="path51" /></g><path d="m 35.971438,108.22695 -0.28275,-0.37082 h -1.575983 l -0.324467,0.39864 v 0.29665 l 2.540114,2.20638 q 0.09734,0.0834 0.09734,0.23176 v 0.54696 q 0,0.0927 -0.06026,0.18541 l -0.431078,0.57477 q -0.08343,0.10197 -0.162234,0.10197 h -1.770663 q -0.08807,0 -0.157598,-0.0834 l -0.45889,-0.5655 q -0.06953,-0.0834 -0.06953,-0.19468 v -0.28738 h 0.449618 v 0.17613 l 0.324468,0.38937 h 1.585253 l 0.296656,-0.40791 v -0.28738 l -2.535479,-2.20638 q -0.09734,-0.0834 -0.09734,-0.23176 v -0.55623 q 0,-0.11125 0.06953,-0.19468 l 0.454254,-0.5655 q 0.06026,-0.0742 0.157598,-0.0742 h 1.756758 q 0.09734,0 0.157598,0.0742 l 0.440348,0.53769 q 0.06489,0.0788 0.06489,0.19468 v 0.29665 h -0.46816 z m 1.84483,-0.13905 1.089283,3.31883 1.135635,-3.30956 v -0.78799 h 0.449618 v 0.84361 q 0,0.0556 -0.0139,0.11125 l -1.362762,3.96777 q -0.06026,0.16686 -0.208586,0.16686 -0.148328,0 -0.208587,-0.16686 l -1.330315,-3.97704 q -0.0093,-0.0278 -0.0093,-0.0324 0,-0.0139 0.0046,-0.0371 0.0046,-0.0232 0.0046,-0.0324 v -0.84361 h 0.449619 z m 4.936538,1.97461 h 1.789205 v 0.51915 h -0.440348 v 1.7892 H 42.54422 q -0.09271,0 -0.157598,-0.0742 l -0.899238,-1.10319 q -0.06953,-0.10197 -0.06953,-0.19468 v -2.29908 q 0,-0.14369 0.06026,-0.21322 l 0.899237,-1.10319 q 0.03708,-0.0742 0.157599,-0.0742 h 0.903873 q 0.101975,0 0.166868,0.0742 l 0.560865,0.70456 -0.324467,0.38936 -0.491336,-0.62113 h -0.713828 l -0.76945,0.95487 v 2.06731 l 0.76945,0.93632 h 1.019754 v -1.23297 h -0.903873 z" id="text4" style="font-size:9.27049px;font-family:'3270 Nerd Font Mono';-inkscape-font-specification:'3270 Nerd Font Mono, Normal';text-align:end;text-anchor:end;fill:#724c35;stroke:#020100;stroke-width:0.679614;stroke-linecap:round;stroke-dasharray:4.07769, 0.679614;stroke-dashoffset:0.407769;stroke-opacity:0.0647482" transform="skewY(-27.890989)" aria-label="SVG" /></g></g></svg>
