<?xml version="1.0" encoding="UTF-8" standalone="no"?>
<!-- Created with Inkscape (http://www.inkscape.org/) -->

<svg width="133.00679mm" height="161.00023mm" viewBox="0 0 133.00678 161.00024" version="1.1" id="svg1" xml:space="preserve" xmlns="http://www.w3.org/2000/svg" xmlns:svg="http://www.w3.org/2000/svg"><defs id="defs1" /><g id="layer1" transform="translate(-51.730768,65.918054)"><g id="g6"><g id="g8"><g id="g7" transform="matrix(4.458715,0,0,4.458715,-21.246942,-374.10219)"><g id="g3" transform="translate(-84.228929,-17.928246)"><path d="m 114.81115,87.137558 -13.71335,7.059083 c -0.66675,0.391584 -0.47625,1.34673 -0.47625,1.34673 l 14.59706,7.487709 14.5706,-7.371293 c 0.0132,-0.04498 0.0291,-0.320146 -0.0397,-0.844021 -0.037,-0.275166 -0.85989,-0.777875 -1.59543,-1.19327 -7.54857,-4.265084 -12.51215,-6.461125 -12.51215,-6.461125 -0.3175,-0.124355 -0.58208,-0.166688 -0.83079,-0.02381" style="fill:#dea66c;stroke-width:0.264583" id="path42" /><path d="m 100.84115,111.29931 c 0.80433,0.53181 2.27277,1.23031 3.75708,2.03464 3.45017,1.86796 7.8105,4.13809 9.98009,5.02973 0.64823,0.26723 0.99218,0.13494 0.99218,0.13494 0,0 -0.30427,-14.89604 -0.29368,-15.72948 0.005,-0.34925 -0.42069,-0.8255 -0.72496,-1.02129 -0.47096,-0.30163 -1.49225,-0.77258 -1.49225,-0.77258 0,0 -3.57717,-1.778004 -7.14904,-3.651254 -1.69863,-0.891646 -3.13267,-1.804458 -4.67519,-2.555875 -0.28046,-0.137583 -0.61648,0.03175 -0.61383,0.346605 v 15.822084 c 0,0.1561 0.0926,0.28046 0.2196,0.36248" style="fill:#bd8955;stroke-width:0.264583" id="path43" /><path d="m 129.37382,111.39191 -13.69484,7.06173 c -0.2196,0.11377 -0.48154,-0.045 -0.48154,-0.29369 l 0.0238,-15.12887 c 0,-0.14552 -0.10848,-0.52388 -0.14816,-0.65617 -0.037,-0.13229 0.0926,-0.39952 0.21431,-0.46037 l 13.69483,-7.053794 c 0.35984,-0.185209 0.79111,0.07673 0.79111,0.481541 v 15.396103 c 0,0.27517 -0.15346,0.52652 -0.39952,0.65352" style="fill:#a06841;stroke-width:0.264583" id="path44" /><path d="m 122.22213,99.6841 c 0.79639,-0.410105 7.05114,-3.754438 7.05114,-4.122209 0,-0.301625 -6.01927,2.886604 -6.01927,2.886604 0,0 -7.50623,3.839105 -7.62793,4.164545 -0.11642,0.32279 5.89227,-2.56646 6.59606,-2.92894" style="fill:#784d30;stroke-width:0.264583" id="path45" /><g style="opacity:0.73" id="g47" transform="matrix(0.26458333,0,0,0.26458333,98.264108,29.969038)" /><g style="opacity:0.73" id="g49" transform="matrix(0.26458333,0,0,0.26458333,98.264108,29.969038)" /><path d="m 124.56634,97.056787 c -0.13229,-0.0979 -14.37217,-7.537979 -14.37217,-7.537979 l -4.41325,2.275417 14.58119,7.506229 c 1.25941,-0.648229 3.25966,-1.680104 4.26508,-2.196042 -0.0159,-0.01587 -0.037,-0.03175 -0.0609,-0.04762" style="fill:#fce8b2;stroke-width:0.264583" id="path50" /><path d="m 124.62719,97.101766 c -2.20662,0.997479 -4.36562,2.145771 -4.36562,2.145771 0.0556,0.02381 0.19314,0.195792 0.19314,0.195792 -0.008,0.306916 -0.0132,0.611191 -0.0212,0.918101 -0.037,1.57427 -0.0582,3.15119 -0.11113,4.72546 0.17727,-0.10583 0.39158,0.127 0.55298,0 0.24871,-0.19579 0.77787,-1.05833 0.85725,-1.08479 0.10583,-0.0344 0.2196,-0.008 0.32808,-0.0132 0.47625,-0.0265 1.54252,-0.99748 1.77007,-1.04246 0.2196,-0.0423 0.94456,0.0979 0.94456,0.0979 0,0 -0.0556,-4.80219 -0.0688,-5.609169 -0.005,-0.230187 -0.0794,-0.333375 -0.0794,-0.333375" style="fill:#ecb354;stroke-width:0.264583" id="path51" /></g><path d="m 35.971438,108.22695 -0.28275,-0.37082 h -1.575983 l -0.324467,0.39864 v 0.29665 l 2.540114,2.20638 q 0.09734,0.0834 0.09734,0.23176 v 0.54696 q 0,0.0927 -0.06026,0.18541 l -0.431078,0.57477 q -0.08343,0.10197 -0.162234,0.10197 h -1.770663 q -0.08807,0 -0.157598,-0.0834 l -0.45889,-0.5655 q -0.06953,-0.0834 -0.06953,-0.19468 v -0.28738 h 0.449618 v 0.17613 l 0.324468,0.38937 h 1.585253 l 0.296656,-0.40791 v -0.28738 l -2.535479,-2.20638 q -0.09734,-0.0834 -0.09734,-0.23176 v -0.55623 q 0,-0.11125 0.06953,-0.19468 l 0.454254,-0.5655 q 0.06026,-0.0742 0.157598,-0.0742 h 1.756758 q 0.09734,0 0.157598,0.0742 l 0.440348,0.53769 q 0.06489,0.0788 0.06489,0.19468 v 0.29665 h -0.46816 z m 1.84483,-0.13905 1.089283,3.31883 1.135635,-3.30956 v -0.78799 h 0.449618 v 0.84361 q 0,0.0556 -0.0139,0.11125 l -1.362762,3.96777 q -0.06026,0.16686 -0.208586,0.16686 -0.148328,0 -0.208587,-0.16686 l -1.330315,-3.97704 q -0.0093,-0.0278 -0.0093,-0.0324 0,-0.0139 0.0046,-0.0371 0.0046,-0.0232 0.0046,-0.0324 v -0.84361 h 0.449619 z m 4.936538,1.97461 h 1.789205 v 0.51915 h -0.440348 v 1.7892 H 42.54422 q -0.09271,0 -0.157598,-0.0742 l -0.899238,-1.10319 q -0.06953,-0.10197 -0.06953,-0.19468 v -2.29908 q 0,-0.14369 0.06026,-0.21322 l 0.899237,-1.10319 q 0.03708,-0.0742 0.157599,-0.0742 h 0.903873 q 0.101975,0 0.166868,0.0742 l 0.560865,0.70456 -0.324467,0.38936 -0.491336,-0.62113 h -0.713828 l -0.76945,0.95487 v 2.06731 l 0.76945,0.93632 h 1.019754 v -1.23297 h -0.903873 z" id="text4" style="font-size:9.27049px;font-family:'3270 Nerd Font Mono';-inkscape-font-specification:'3270 Nerd Font Mono, Normal';text-align:end;text-anchor:end;fill:#724c35;stroke:#020100;stroke-width:0.679614;stroke-linecap:round;stroke-dasharray:4.07769, 0.679614;stroke-dashoffset:0.407769;stroke-opacity:0.0647482" transform="skewY(-27.890989)" aria-label="SVG" /></g></g></g></g></svg>
